<svg xmlns="http://www.w3.org/2000/svg" viewBox="0 0 277.85 202.82"><defs><style>.cls-1{fill:none;}.cls-2{fill:#006838;}.cls-3{fill:#009444;}.cls-4{fill:#fff;}</style></defs><g id="Layer_2" data-name="Layer 2"><g id="Layer_1-2" data-name="Layer 1"><polygon class="cls-1" points="228.9 108.13 265.45 68.42 228.9 108.13 228.9 108.13"/><path class="cls-2" d="M213.18,15.74c-9.18,2.16-25,10.41-41.07,23a167.74,167.74,0,0,1,16,39.94Z"/><rect class="cls-3" x="217.34" y="110.96" height="19.45"/><path class="cls-3" d="M188.18,79.09A168.47,168.47,0,0,1,227.12,60.5c-3-20.1-8.78-36.91-13.94-44.76l-25.09,63Z"/><rect class="cls-3" x="143.84" y="200.3" height="0.49"/><polygon class="cls-3" points="174.9 166.8 174.9 166.8 196.99 142.8 196.99 142.8 174.9 166.8"/><path class="cls-3" d="M105.73,38.78c-16-12.63-31.89-20.88-41.06-23l25.08,63A167,167,0,0,1,105.73,38.78Z"/><path class="cls-2" d="M89.75,78.7l-25.08-63c-5.16,7.86-11,24.66-13.94,44.76A168.08,168.08,0,0,1,89.65,79.08C89.68,79,89.72,78.82,89.75,78.7Z"/><polygon class="cls-2" points="138.91 0 138.91 0 138.91 0 138.91 0"/><path class="cls-2" d="M138.91,2.49C130.77,8.73,119,23.14,109,41.4A163.37,163.37,0,0,0,93.21,81.51a116.56,116.56,0,0,1,14.38,11.87,110,110,0,0,1,14.28,17.24A119.37,119.37,0,0,1,130,124.74h8.9V2.49Z"/><polygon class="cls-3" points="138.91 0 138.91 0 138.91 0 138.91 0"/><path class="cls-3" d="M138.91,73.33v0h0Z"/><path class="cls-3" d="M168.86,41.41c-10-18.26-21.8-32.68-30-38.92V73.35h0v51.38h8.92A118.2,118.2,0,0,1,156,110.61a109.35,109.35,0,0,1,14.28-17.23,117.19,117.19,0,0,1,14.36-11.86A163.9,163.9,0,0,0,168.86,41.41Z"/><rect class="cls-4" x="142.39" y="196.67" width="10.04" transform="translate(-97.12 171.94) rotate(-47.37)"/><polygon class="cls-4" points="171.37 170.63 171.37 170.63 174.9 166.8 174.9 166.8 171.37 170.63"/><polygon class="cls-4" points="138.91 2.49 138.91 2.49 138.91 2.49 138.91 2.49"/><rect class="cls-4" x="147.39" y="185.2" width="21.14" transform="translate(-85.28 176.01) rotate(-47.37)"/><polygon class="cls-3" points="136.1 202.82 136.1 202.82 136.1 202.82 136.1 202.82"/><polygon class="cls-3" points="105.93 164.13 104.94 164.13 104.94 162.37 104.94 155.93 100.5 153.49 97.57 151.87 94.89 150.39 80.6 142.52 102.89 166.74 105.44 169.5 105.88 167.99 106.66 165.38 107.03 164.13 105.93 164.13"/><polygon class="cls-3" points="67.34 128.11 67.34 127.77 67.35 127.77 67.35 113.53 53.92 113.53 67.34 128.11"/><path class="cls-3" d="M120.41,117.55a103.07,103.07,0,0,0-27-29.7l-1.31-1c-.6-.44-1.2-.86-1.81-1.29s-1.2-.84-1.81-1.25A163.06,163.06,0,0,0,50,65.64C30.61,59,12.37,56.41,2.11,57.24L49,108.13h58.19v5.4H73.79l3.12,14.24h28v-3h19.53Q122.57,121.1,120.41,117.55Z"/><path class="cls-3" d="M137.68,176.58a103.16,103.16,0,0,0-.86-12.45H121.76l-.44.57-8.14,10.5L112,176.67,127.1,193l6.77,7.35.3.33,0-.12q.33-1,.63-1.95l.27-.94c.1-.35.21-.7.3-1.06.18-.68.34-1.39.49-2.09a78.53,78.53,0,0,0,1.78-15.82Q137.66,177.66,137.68,176.58Z"/><path class="cls-2" d="M133.87,200.39,127.1,193,112,176.67l-.13.18-1.23,1.58-3.65,4.7L103,177.87l2.2-7.41.29-1-2.55-2.76L80.6,142.52l-13.26-7.31v-7.1L53.92,113.53H33.33v-5.4H49L2.11,57.24h0c-3.31,20.1,4.23,72.41,31.14,104.92,22.46,27.13,57.48,40.44,84.62,40.45a69.27,69.27,0,0,0,14-1.34q1.18-.24,2.34-.54h0Z"/><polygon class="cls-2" points="2.11 57.24 2.11 57.24 2.11 57.24 2.11 57.24"/><polygon class="cls-2" points="134.17 200.73 134.18 200.73 134.17 200.72 134.17 200.73"/><rect class="cls-4" x="136.1" y="202.82" transform="translate(-103.55 155.64) rotate(-45)"/><polygon class="cls-4" points="0 54.95 0 54.95 0 54.95 0 54.95 0 54.95"/><polygon class="cls-2" points="141.75 202.81 141.75 202.81 141.75 202.82 141.75 202.82 141.75 202.81"/><polygon class="cls-2" points="210.74 127.77 210.75 127.77 210.75 127.84 223.93 113.53 210.74 113.53 210.74 127.77"/><path class="cls-2" d="M156.23,166l-1.4-1.82H141a104.15,104.15,0,0,0-.85,12.88v.58a82.88,82.88,0,0,0,1.29,14.54c.15.81.32,1.61.5,2.4s.32,1.4.5,2.09c.1.36.19.73.29,1.08s.17.62.27.93c.19.66.4,1.32.61,2a.65.65,0,0,1,0,.13h0l.33-.36,6.8-7.39,14.31-15.55L164,176Z"/><polygon class="cls-2" points="180.18 152.06 177.25 153.68 170.94 157.16 170.94 164.13 169.34 164.13 170.22 166.94 171.02 169.5 171.37 170.63 174.9 166.8 196.99 142.8 182.86 150.59 180.18 152.06"/><path class="cls-2" d="M227.81,65.64a163.09,163.09,0,0,0-38.45,18.7l-1.8,1.25c-.6.43-1.21.85-1.81,1.29-.44.31-.86.64-1.29,1a103.07,103.07,0,0,0-27,29.7q-2.17,3.54-4.06,7.19h17.56v3h31.6l2.28-14.24H170.94v-5.4h58l36.55-39.71,10.29-11.18C265.48,56.41,247.24,59,227.81,65.64Z"/><path class="cls-2" d="M140.17,177.59v0Z"/><polygon class="cls-4" points="140.22 197.98 140.22 197.98 140.22 197.98 140.22 197.98"/><polygon class="cls-4" points="138.91 200.97 138.91 200.97 138.91 200.97 138.91 200.97"/><polygon class="cls-4" points="138.91 200.97 138.91 200.97 138.91 200.97 138.91 200.97"/><polygon class="cls-3" points="141.75 202.82 141.75 202.82 141.75 202.82 141.75 202.82"/><path class="cls-3" d="M275.74,57.24h0L265.45,68.42,228.9,108.13h15.85v5.4H223.93l-13.18,14.32v7.36L197,142.8l-22.09,24-3.53,3.83.39,1.24,1.87,6-4.08,5.26-3-3.89-1.23-1.58-.19-.24L150.81,193l-6.8,7.39-.33.36c.77.2,1.56.38,2.36.54,27.89,5.73,72-7,98.55-39.1C271.5,129.65,279.05,77.34,275.74,57.24Z"/><polygon class="cls-3" points="141.75 202.82 141.75 202.82 141.75 202.82 141.75 202.82"/><polygon class="cls-3" points="265.45 68.42 275.74 57.24 275.74 57.24 265.45 68.42"/><polygon class="cls-3" points="275.74 57.24 275.74 57.24 275.74 57.24 275.74 57.24"/><rect class="cls-3" x="275.74" y="57.24"/><rect class="cls-4" x="143.68" y="200.72"/><polygon class="cls-4" points="141.75 202.81 141.75 202.82 141.75 202.81 141.75 202.81"/><polygon class="cls-4" points="143.68 200.72 143.68 200.72 143.68 200.72 143.68 200.72"/><polygon class="cls-4" points="277.85 54.95 277.85 54.95 277.85 54.95 277.85 54.95 277.85 54.95"/><rect class="cls-4" x="141.75" y="202.81"/><path class="cls-1" d="M146,142.23a8.77,8.77,0,0,0-2-1.92,8.47,8.47,0,0,0-2.17-1.08,8.65,8.65,0,0,0-2.8-.46h-.13a8.92,8.92,0,0,0-2.88.54,8.69,8.69,0,0,0-2.15,1.14,8.79,8.79,0,0,0,1.52,15.15,8.46,8.46,0,0,0,2.7.75l.41,0,.4,0H139c.24,0,.47,0,.7,0s.54-.06.8-.1a9.15,9.15,0,0,0,1.89-.55,8.79,8.79,0,0,0,3.6-13.49Z"/><path class="cls-2" d="M146.78,140a11.2,11.2,0,0,0-4.28-2.7,10.68,10.68,0,0,0-3.46-.57h-.13a10.94,10.94,0,0,0-3.54.65,11.23,11.23,0,0,0-2.17,1.07,10.92,10.92,0,0,0-5,9.09,10.83,10.83,0,0,0,7.64,10.34,10.42,10.42,0,0,0,2.62.45h.12l.31,0h.45a11,11,0,0,0,1.54-.16A9.6,9.6,0,0,0,142,158,10.79,10.79,0,0,0,146.78,140Zm-4.35,15.68a9.15,9.15,0,0,1-1.89.55c-.26,0-.53.08-.8.1s-.46,0-.7,0h-.13l-.4,0-.41,0a8.46,8.46,0,0,1-2.7-.75,8.81,8.81,0,0,1-1.52-15.15,8.69,8.69,0,0,1,2.15-1.14,8.92,8.92,0,0,1,2.88-.54H139a8.65,8.65,0,0,1,2.8.46,8.47,8.47,0,0,1,2.17,1.08,8.8,8.8,0,0,1-1.58,15.41Z"/></g></g></svg>